# xmcd CD database file
#
# Track frame offsets:
#	150
#	3479
#	10782
#	23918
#	58838
#	133170
#	243572
#	249797
#
# Disc length: 3383 seconds
#
# Revision: 0
# Processed by: cddbd v1.5.1PL2 Copyright (c) Steve Scherf et al.
# Submitted via: CDex 1.51
#
DISCID=600d3508
DTITLE=Meena - Surya
DYEAR=2002
DGENRE=New Age
TTITLE0=Invocation
TTITLE1=Commentary
TTITLE2=Gayatri Mantra
TTITLE3=Suryashtakam
TTITLE4=Surya namaskaar Mantra
TTITLE5=Surya Sahasthranaam
TTITLE6=Surya Praarthanaa
TTITLE7=Om asatoma Sadgamaya
EXTD=YEAR: 2002
EXTT0=
EXTT1=
EXTT2=
EXTT3=
EXTT4=
EXTT5=
EXTT6=
EXTT7=
PLAYORDER=
